# xmcd CD database file
#
# Track frame offsets:
#	150
#	30432
#	42551
#	67807
#	82125
#	105023
#	118098
#	131695
#	145566
#	158665
#	172440
#	185748
#	197668
#	218404
#	232953
#	244461
#	258525
#
# Disc length: 3629 seconds
#
# Revision: 0
# Processed by: cddbd v1.5.2PL0 Copyright (c) Steve Scherf et al.
# Submitted via: CDex 1.81
#
DISCID=ee0e2b11
DTITLE=varios - Unknown CD for MusicBrainz and FreeDB
DYEAR=2006
DGENRE=Blues
TTITLE0=The Thrill Is Gone [Live]-Eric Clapton - B.B. King
TTITLE1=Burning Hell-John Lee Hooker
TTITLE2=Got My Mojo Working [Live]-Junior Wells
TTITLE3=A Spoonful Blues-Charley Patton
TTITLE4=The World Keep On Turning [Live]-Peter Green
TTITLE5=Mean Old World-T-Bone Walker
TTITLE6=Sweet Home Chicago-Robert Johnson
TTITLE7=I Can't Quit You Baby-Otis Rush
TTITLE8=Moanin' At Midnight-Howlin' Wolf
TTITLE9=Yonder Come The Blues-Ma Rainey
TTITLE10=Man Killing Broad-Lonnie Johnson
TTITLE11=Tim Moore's Farm-Lightnin' Hopkins
TTITLE12=Eyesight To The Blind-Michael Bloomfield
TTITLE13=West Coast Blues-Blind Blake
TTITLE14=Okie Dokie Stomp-Clarence "Gatemouth" Brown
TTITLE15=	Alberta-Lead Belly
TTITLE16=Blues With A Feeling-Little Walter
EXTD=YEAR: 2006
EXTT0=
EXTT1=
EXTT2=
EXTT3=
EXTT4=
EXTT5=
EXTT6=
EXTT7=
EXTT8=
EXTT9=
EXTT10=
EXTT11=
EXTT12=
EXTT13=
EXTT14=
EXTT15=
EXTT16=
PLAYORDER=
